<?xml version="1.0" encoding="UTF-8" standalone="no"?>
<svg xmlns="http://www.w3.org/2000/svg" width="200" height="200" viewBox="0 0 200 200">
  <!-- Fond du calendrier -->
  <rect x="20" y="40" width="160" height="140" rx="10" ry="10" fill="#ffffff" stroke="#4285f4" stroke-width="6"/>
  
  <!-- En-tête du calendrier -->
  <rect x="20" y="40" width="160" height="30" rx="10" ry="10" fill="#4285f4"/>
  
  <!-- Jours de la semaine -->
  <text x="40" y="60" font-family="Arial, sans-serif" font-size="12" fill="#ffffff">L M M J V S D</text>
  
  <!-- Grille du calendrier -->
  <line x1="48" y1="80" x2="48" y2="170" stroke="#e0e0e0" stroke-width="1"/>
  <line x1="76" y1="80" x2="76" y2="170" stroke="#e0e0e0" stroke-width="1"/>
  <line x1="104" y1="80" x2="104" y2="170" stroke="#e0e0e0" stroke-width="1"/>
  <line x1="132" y1="80" x2="132" y2="170" stroke="#e0e0e0" stroke-width="1"/>
  <line x1="160" y1="80" x2="160" y2="170" stroke="#e0e0e0" stroke-width="1"/>
  
  <line x1="20" y1="100" x2="180" y2="100" stroke="#e0e0e0" stroke-width="1"/>
  <line x1="20" y1="120" x2="180" y2="120" stroke="#e0e0e0" stroke-width="1"/>
  <line x1="20" y1="140" x2="180" y2="140" stroke="#e0e0e0" stroke-width="1"/>
  <line x1="20" y1="160" x2="180" y2="160" stroke="#e0e0e0" stroke-width="1"/>
  
  <!-- Dates exemple -->
  <circle cx="104" cy="130" r="15" fill="#ea4335" opacity="0.8"/>
  <text x="104" y="135" font-family="Arial, sans-serif" font-size="14" fill="#ffffff" text-anchor="middle">15</text>
  
  <!-- Petits points d'événements -->
  <circle cx="48" cy="90" r="3" fill="#fbbc05"/>
  <circle cx="132" cy="150" r="3" fill="#34a853"/>
  
  <!-- Attaches du calendrier -->
  <rect x="60" y="30" width="20" height="10" rx="5" ry="5" fill="#db4437"/>
  <rect x="120" y="30" width="20" height="10" rx="5" ry="5" fill="#db4437"/>
  
  <!-- Texte "Chaulacel" -->
  <text x="100" y="185" font-family="Arial, sans-serif" font-size="16" font-weight="bold" fill="#4285f4" text-anchor="middle">Chaulacel</text>
</svg>